<svg width="40" height="32" viewBox="0 0 40 32" fill="none" xmlns="http://www.w3.org/2000/svg">
<g clip-path="url(#clip0_4_66)">
<path d="M4 32C2.9 32 1.95867 31.6087 1.176 30.826C0.392 30.042 0 29.1 0 28V4C0 2.9 0.392 1.95867 1.176 1.176C1.95867 0.392 2.9 0 4 0H36C37.1 0 38.042 0.392 38.826 1.176C39.6087 1.95867 40 2.9 40 4V28C40 29.1 39.6087 30.042 38.826 30.826C38.042 31.6087 37.1 32 36 32H4ZM36 8L21.05 17.35C20.8833 17.45 20.708 17.5247 20.524 17.574C20.3413 17.6247 20.1667 17.65 20 17.65C19.8333 17.65 19.6587 17.6247 19.476 17.574C19.292 17.5247 19.1167 17.45 18.95 17.35L4 8V28H36V8ZM20 14L36 4H4L20 14ZM4 8.5V5.55V5.6V5.574V8.5Z" fill="#3C9E87"/>
</g>
<defs>
<clipPath id="clip0_4_66">
<rect width="40" height="32" fill="white"/>
</clipPath>
</defs>
</svg>
