<svg width="37" height="37" viewBox="0 0 37 37" fill="none" xmlns="http://www.w3.org/2000/svg">
<g clip-path="url(#clip0_4_64)">
<path d="M28.1583 13.9686C27.775 13.5853 27.5833 13.1298 27.5833 12.6021C27.5833 12.0756 27.775 11.6207 28.1583 11.2374L29.8833 9.51239H21.9292C21.3861 9.51239 20.9312 9.32839 20.5645 8.96039C20.1965 8.59367 20.0125 8.13878 20.0125 7.59572C20.0125 7.05267 20.1965 6.59778 20.5645 6.23106C20.9312 5.86306 21.3861 5.67906 21.9292 5.67906H29.8833L28.1583 3.95406C27.775 3.57072 27.5916 3.1235 27.6083 2.61239C27.6236 2.10128 27.8069 1.65406 28.1583 1.27072C28.5417 0.88739 28.9972 0.687418 29.5249 0.670806C30.0514 0.655473 30.5063 0.839473 30.8896 1.22281L35.9208 6.25406C36.1125 6.44572 36.2479 6.65336 36.3272 6.87697C36.4077 7.10058 36.4479 7.34017 36.4479 7.59572C36.4479 7.85128 36.4077 8.09086 36.3272 8.31447C36.2479 8.53808 36.1125 8.74572 35.9208 8.93739L30.8417 14.0166C30.4583 14.3999 30.0111 14.5839 29.5 14.5686C28.9889 14.5519 28.5417 14.352 28.1583 13.9686ZM33.2375 36.2499C29.1167 36.2499 25.1 35.3312 21.1874 33.4937C17.2736 31.6576 13.8076 29.2298 10.7895 26.2104C7.77011 23.1923 5.34233 19.7263 3.50617 15.8125C1.66872 11.8999 0.75 7.88322 0.75 3.76239C0.75 3.18739 0.941667 2.70822 1.325 2.32489C1.70833 1.94156 2.1875 1.74989 2.7625 1.74989H10.525C10.9722 1.74989 11.3715 1.89364 11.7229 2.18114C12.0743 2.46864 12.2819 2.836 12.3458 3.28322L13.5917 9.99156C13.6556 10.4388 13.6479 10.8457 13.5687 11.2125C13.4882 11.5805 13.3042 11.9082 13.0167 12.1957L8.41667 16.8916C9.75833 19.1916 11.4354 21.3478 13.4479 23.3603C15.4604 25.3728 17.6806 27.1138 20.1083 28.5832L24.6125 24.0791C24.9 23.7916 25.2757 23.5756 25.7395 23.4312C26.2021 23.2881 26.6569 23.2485 27.1042 23.3124L33.7167 24.6541C34.1639 24.7499 34.5312 24.9652 34.8188 25.3C35.1063 25.636 35.25 26.0277 35.25 26.4749V34.2374C35.25 34.8124 35.0583 35.2916 34.675 35.6749C34.2917 36.0582 33.8125 36.2499 33.2375 36.2499Z" fill="#3C9E87"/>
</g>
<defs>
<clipPath id="clip0_4_64">
<rect width="37" height="37" fill="white"/>
</clipPath>
</defs>
</svg>
