<svg width="24" height="33" viewBox="0 0 24 33" fill="none" xmlns="http://www.w3.org/2000/svg">
<path d="M8.88185 28.1667H15.2013V26.7083H8.88185V28.1667ZM4.14227 32.5417C3.27334 32.5417 2.52975 32.2563 1.9115 31.6856C1.2922 31.114 0.982544 30.4271 0.982544 29.625V3.37501C0.982544 2.57293 1.2922 1.88605 1.9115 1.31439C2.52975 0.743691 3.27334 0.458344 4.14227 0.458344H19.9409C20.8098 0.458344 21.5539 0.743691 22.1732 1.31439C22.7915 1.88605 23.1006 2.57293 23.1006 3.37501V29.625C23.1006 30.4271 22.7915 31.114 22.1732 31.6856C21.5539 32.2563 20.8098 32.5417 19.9409 32.5417H4.14227ZM4.14227 25.25V29.625H19.9409V25.25H4.14227ZM4.14227 22.3333H19.9409V7.75001H4.14227V22.3333ZM4.14227 4.83334H19.9409V3.37501H4.14227V4.83334Z" fill="#025A4E"/>
</svg>
